<svg xmlns="http://www.w3.org/2000/svg" width="805" height="600"><rect width="805" height="600" x="0" y="0" fill="#FFFFFF" id="background"/><g id="viz"><g transform="translate(0,0)"><g transform="translate(10,20)"><g><path fill="#17becf" d="M0,560C9.081799794247932,559.7265199380026,18.163599588495863,559.4530398760054,27.068965517241377,559.4909090909091C35.97433144598689,559.5287783058128,44.70326350922998,559.8779967976177,54.137931034482754,560C63.57259855973553,560.1220032023823,73.71300154699799,560.0167911153421,81.20689655172414,560C88.7007915564503,559.9832088846579,93.54817857864016,560.0548387410141,108.27586206896551,560C123.00354555929086,559.9451612589859,147.6115255177517,559.7638539206014,162.41379310344828,560C177.21606068914488,560.2361460793986,182.21261590207715,560.8897455765803,189.48275862068965,560C196.75290133930216,559.1102544234197,206.29663156359481,556.6771637730777,216.55172413793102,556.1818181818181C226.80681671226722,555.6864725905585,237.77327163664694,557.1288720583814,243.6206896551724,557.2C249.4681076736979,557.2711279416187,250.19648878636923,555.9709843570331,270.68965517241384,555.1636363636363C291.18282155845844,554.3562883702396,331.44077321787637,554.0417359680313,351.89655172413796,554.6545454545454C372.35233023039956,555.2673549410596,373.0059355835047,556.8075263162955,378.9655172413793,556.1818181818181C384.9250988992539,555.5561100473408,396.19065686189816,552.7645224031501,406.0344827586207,552.1090909090909C415.87830865534323,551.4536594150318,424.3004024861441,552.9343840711039,433.10344827586204,553.1272727272727C441.90649406558,553.3201613834416,451.09049181421517,552.225214039707,460.17241379310343,552.1090909090909C469.2543357719917,551.9929677784748,478.2341819811331,552.8556688609774,487.2413793103448,552.8727272727273C496.2485766395566,552.8897856844771,505.2831250888387,552.0612014254741,514.3103448275862,552.6181818181818C523.3375645663336,553.1751622108895,532.3574555945461,555.1177072553081,541.3793103448277,555.9272727272727C550.4011650951093,556.7368381992372,559.4249835674602,556.413424098748,568.448275862069,555.9272727272727C577.4715681566777,555.4411213557973,586.494334273544,554.7922327133358,595.5172413793103,555.9272727272727C604.5401484850767,557.0623127412096,613.5631965797427,559.981281411545,622.5862068965517,559.7454545454545C631.6092172133608,559.5096276793641,640.6321897523128,556.1190052768472,649.6551724137931,555.9272727272727C658.6781550752735,555.7355401776981,667.7011478592821,558.7426974810658,676.7241379310344,559.7454545454545C685.7471280027868,560.7482116098433,694.7701153622829,559.7465684352532,703.7931034482759,559.4909090909091C712.8160915342689,559.235249746565,721.8390803467594,559.7255742324667,730.8620689655172,559.7454545454545C739.885057584275,559.7653348584424,748.9080460093002,559.314770998516,757.9310344827586,558.9818181818182C766.954022956217,558.6488653651204,775.9770114781086,558.4335235916511,785,558.2181818181818L785,560C775.9770114781086,560,766.954022956217,560,757.9310344827586,560C748.9080460093002,560,739.8850575842749,560,730.8620689655172,560C721.8390803467595,560,712.8160915342693,559.9999999999999,703.7931034482759,560C694.7701153622826,560.0000000000001,685.7471280027868,560.0000000000001,676.7241379310344,560C667.7011478592821,559.9999999999999,658.6781550752734,560,649.6551724137931,560C640.6321897523129,560,631.6092172133608,560,622.5862068965517,560C613.5631965797427,560,604.5401484850764,560,595.5172413793103,560C586.4943342735443,560,577.4715681566777,560,568.448275862069,560C559.4249835674602,560,550.4011650951094,560,541.3793103448277,560C532.357455594546,560,523.3375645663334,560,514.3103448275862,560C505.2831250888389,560,496.24857663955675,560,487.2413793103448,560C478.2341819811329,560,469.25433577199163,560.0000000000001,460.17241379310343,560C451.0904918142152,559.9999999999999,441.9064940655801,560,433.10344827586204,560C424.300402486144,560,415.8783086553431,560,406.0344827586207,560C396.1906568618983,560,384.925098899254,560.0000000000001,378.9655172413793,560C373.0059355835046,559.9999999999999,372.35233023039945,559.9999999999999,351.89655172413796,560C331.4407732178765,560.0000000000001,291.18282155845844,560.0000000000001,270.68965517241384,560C250.19648878636923,559.9999999999999,249.46810767369792,559.9999999999999,243.6206896551724,560C237.7732716366469,560.0000000000001,226.80681671226722,560.0000000000001,216.55172413793102,560C206.29663156359481,559.9999999999999,196.75290133930216,559.9999999999999,189.48275862068965,560C182.21261590207715,560.0000000000001,177.21606068914485,560.0000000000001,162.41379310344828,560C147.61152551775172,559.9999999999999,123.00354555929086,559.9999999999999,108.27586206896551,560C93.54817857864016,560.0000000000001,88.7007915564503,560.0000000000001,81.20689655172414,560C73.71300154699799,559.9999999999999,63.57259855973552,559.9999999999999,54.137931034482754,560C44.70326350922999,560.0000000000001,35.97433144598689,560,27.068965517241377,560C18.163599588495863,560,9.081799794247932,560,0,560Z"><title>South Asia</title></path><path fill="#8c564b" d="M0,560C9.081799794247932,559.7263044221195,18.163599588495863,559.452608844239,27.068965517241377,559.4909090909091C35.97433144598689,559.5292093375792,44.70326350922998,559.8795054088001,54.137931034482754,560C63.57259855973553,560.1204945911999,73.71300154699799,560.0111877023786,81.20689655172414,560C88.7007915564503,559.9888122976214,93.54817857864016,560.0757437816857,108.27586206896551,560C123.00354555929086,559.9242562183143,147.6115255177517,559.6858371708787,162.41379310344828,560C177.21606068914488,560.3141628291213,182.21261590207715,561.1809075347999,189.48275862068965,560C196.75290133930216,558.8190924652001,206.29663156359481,555.590532689922,216.55172413793102,555.1636363636363C226.80681671226722,554.7367400373506,237.77327163664694,557.1115071600577,243.6206896551724,557.2C249.4681076736979,557.2884928399424,250.19648878636923,555.09071139712,270.68965517241384,553.8909090909091C291.18282155845844,552.6911067846981,331.44077321787637,552.4892836150987,351.89655172413796,553.3818181818182C372.35233023039956,554.2743527485377,373.0059355835047,556.2612450515765,378.9655172413793,555.9272727272727C384.9250988992539,555.5933004029689,396.19065686189816,552.9384634513225,406.0344827586207,552.1090909090909C415.87830865534323,551.2797183668594,424.3004024861441,552.2758102340428,433.10344827586204,552.3636363636364C441.90649406558,552.45146249323,451.09049181421517,551.6310228852336,460.17241379310343,551.6C469.2543357719917,551.5689771147664,478.2341819811331,552.3273709522957,487.2413793103448,552.3636363636364C496.2485766395566,552.399901774977,505.2831250888387,551.7140387601289,514.3103448275862,552.3636363636364C523.3375645663336,553.0132339671438,532.3574555945461,554.998292189007,541.3793103448277,555.9272727272727C550.4011650951093,556.8562532655384,559.4249835674602,556.7291561202067,568.448275862069,555.9272727272727C577.4715681566777,555.1253893343387,586.494334273544,553.6487196938024,595.5172413793103,554.6545454545454C604.5401484850767,555.6603712152885,613.5631965797427,559.1486923773107,622.5862068965517,558.9818181818182C631.6092172133608,558.8149439863257,640.6321897523128,554.9928744333187,649.6551724137931,554.6545454545454C658.6781550752735,554.3162164757722,667.7011478592821,557.4616280712327,676.7241379310344,558.2181818181818C685.7471280027868,558.974735565131,694.7701153622829,557.3424314635682,703.7931034482759,556.9454545454545C712.8160915342689,556.5484776273407,721.8390803467594,557.3868278926756,730.8620689655172,557.7090909090908C739.885057584275,558.0313539255061,748.9080460093002,557.8375296930018,757.9310344827586,557.4545454545455C766.954022956217,557.0715612160892,775.9770114781086,556.499416971681,785,555.9272727272727L785,558.2181818181818C775.9770114781086,558.4335235916511,766.954022956217,558.6488653651204,757.9310344827586,558.9818181818182C748.9080460093002,559.314770998516,739.8850575842749,559.7653348584423,730.8620689655172,559.7454545454545C721.8390803467595,559.7255742324668,712.8160915342693,559.2352497465649,703.7931034482759,559.4909090909091C694.7701153622826,559.7465684352533,685.7471280027868,560.7482116098432,676.7241379310344,559.7454545454545C667.7011478592821,558.7426974810659,658.6781550752734,555.7355401776982,649.6551724137931,555.9272727272727C640.6321897523129,556.1190052768471,631.6092172133608,559.5096276793638,622.5862068965517,559.7454545454545C613.5631965797427,559.9812814115453,604.5401484850764,557.0623127412098,595.5172413793103,555.9272727272727C586.4943342735443,554.7922327133356,577.4715681566777,555.4411213557973,568.448275862069,555.9272727272727C559.4249835674602,556.413424098748,550.4011650951094,556.7368381992372,541.3793103448277,555.9272727272727C532.357455594546,555.1177072553081,523.3375645663334,553.1751622108897,514.3103448275862,552.6181818181818C505.2831250888389,552.061201425474,496.24857663955675,552.889785684477,487.2413793103448,552.8727272727273C478.2341819811329,552.8556688609775,469.25433577199163,551.9929677784748,460.17241379310343,552.1090909090909C451.0904918142152,552.225214039707,441.9064940655801,553.3201613834415,433.10344827586204,553.1272727272727C424.300402486144,552.934384071104,415.8783086553431,551.4536594150317,406.0344827586207,552.1090909090909C396.1906568618983,552.7645224031502,384.925098899254,555.5561100473407,378.9655172413793,556.1818181818181C373.0059355835046,556.8075263162956,372.35233023039945,555.2673549410594,351.89655172413796,554.6545454545454C331.4407732178765,554.0417359680315,291.18282155845844,554.3562883702394,270.68965517241384,555.1636363636363C250.19648878636923,555.9709843570332,249.46810767369792,557.2711279416187,243.6206896551724,557.2C237.7732716366469,557.1288720583814,226.80681671226722,555.6864725905584,216.55172413793102,556.1818181818181C206.29663156359481,556.6771637730778,196.75290133930216,559.1102544234197,189.48275862068965,560C182.21261590207715,560.8897455765803,177.21606068914485,560.2361460793985,162.41379310344828,560C147.61152551775172,559.7638539206015,123.00354555929086,559.9451612589859,108.27586206896551,560C93.54817857864016,560.0548387410141,88.7007915564503,559.983208884658,81.20689655172414,560C73.71300154699799,560.016791115342,63.57259855973552,560.1220032023822,54.137931034482754,560C44.70326350922999,559.8779967976178,35.97433144598689,559.5287783058128,27.068965517241377,559.4909090909091C18.163599588495863,559.4530398760054,9.081799794247932,559.7265199380026,0,560Z"><title>North Africa</title></path><path fill="#9467bd" d="M0,560C9.081799794247932,559.7822629578873,18.163599588495863,559.5645259157744,27.068965517241377,558.9818181818182C35.97433144598689,558.399110447862,44.70326350922998,557.4514320220627,54.137931034482754,557.7090909090908C63.57259855973553,557.966749796119,73.71300154699799,559.4297459959745,81.20689655172414,560C88.7007915564503,560.5702540040255,93.54817857864016,560.247765812221,108.27586206896551,560C123.00354555929086,559.752234187779,147.6115255177517,559.5791907551417,162.41379310344828,558.2181818181818C177.21606068914488,556.857172881222,182.21261590207715,554.3081984399398,189.48275862068965,549.8181818181819C196.75290133930216,545.3281651964239,206.29663156359481,538.8971063941905,216.55172413793102,540.9090909090909C226.80681671226722,542.9210754239913,237.77327163664694,553.3761032560258,243.6206896551724,555.4181818181818C249.4681076736979,557.4602603803378,250.19648878636923,551.0893896726151,270.68965517241384,547.0181818181818C291.18282155845844,542.9469739637485,331.44077321787637,541.1754289626048,351.89655172413796,541.6727272727272C372.35233023039956,542.1700255828497,373.0059355835047,544.9361672042386,378.9655172413793,546C384.9250988992539,547.0638327957614,396.19065686189816,546.4253567658958,406.0344827586207,546.2545454545455C415.87830865534323,546.0837341431951,424.3004024861441,546.3805875503602,433.10344827586204,546.2545454545455C441.90649406558,546.1285033587307,451.09049181421517,545.579565759936,460.17241379310343,545.4909090909091C469.2543357719917,545.4022524218822,478.2341819811331,545.7738766826229,487.2413793103448,545.4909090909091C496.2485766395566,545.2079414991953,505.2831250888387,544.2703820550267,514.3103448275862,544.7272727272727C523.3375645663336,545.1841633995188,532.3574555945461,547.0355041881792,541.3793103448277,547.2727272727273C550.4011650951093,547.5099503572753,559.4249835674602,546.1330557377111,568.448275862069,544.2181818181818C577.4715681566777,542.3033078986526,586.494334273544,539.8504546791589,595.5172413793103,540.1454545454545C604.5401484850767,540.4404544117501,613.5631965797427,543.483307363835,622.5862068965517,542.1818181818181C631.6092172133608,540.8803289998012,640.6321897523128,535.2344976836825,649.6551724137931,529.9636363636364C658.6781550752735,524.6927750435902,667.7011478592821,519.796883719616,676.7241379310344,515.4545454545454C685.7471280027868,511.1122071894748,694.7701153622829,507.3234219833081,703.7931034482759,506.8C712.8160915342689,506.27657801669193,721.8390803467594,509.01851925624226,730.8620689655172,508.3272727272727C739.885057584275,507.63602619830317,748.9080460093002,503.5115919008138,757.9310344827586,503.49090909090904C766.954022956217,503.4702262810043,775.9770114781086,507.553294958684,785,511.6363636363636L785,555.9272727272727C775.9770114781086,556.4994169716811,766.954022956217,557.0715612160893,757.9310344827586,557.4545454545455C748.9080460093002,557.8375296930017,739.8850575842749,558.0313539255061,730.8620689655172,557.7090909090908C721.8390803467595,557.3868278926756,712.8160915342693,556.5484776273407,703.7931034482759,556.9454545454545C694.7701153622826,557.3424314635682,685.7471280027868,558.9747355651309,676.7241379310344,558.2181818181818C667.7011478592821,557.4616280712328,658.6781550752734,554.3162164757722,649.6551724137931,554.6545454545454C640.6321897523129,554.9928744333187,631.6092172133608,558.8149439863258,622.5862068965517,558.9818181818182C613.5631965797427,559.1486923773106,604.5401484850764,555.6603712152885,595.5172413793103,554.6545454545454C586.4943342735443,553.6487196938024,577.4715681566777,555.1253893343387,568.448275862069,555.9272727272727C559.4249835674602,556.7291561202067,550.4011650951094,556.8562532655384,541.3793103448277,555.9272727272727C532.357455594546,554.998292189007,523.3375645663334,553.0132339671441,514.3103448275862,552.3636363636364C505.2831250888389,551.7140387601287,496.24857663955675,552.3999017749768,487.2413793103448,552.3636363636364C478.2341819811329,552.327370952296,469.25433577199163,551.5689771147665,460.17241379310343,551.6C451.0904918142152,551.6310228852335,441.9064940655801,552.45146249323,433.10344827586204,552.3636363636364C424.300402486144,552.2758102340428,415.8783086553431,551.2797183668595,406.0344827586207,552.1090909090909C396.1906568618983,552.9384634513224,384.925098899254,555.5933004029688,378.9655172413793,555.9272727272727C373.0059355835046,556.2612450515766,372.35233023039945,554.2743527485378,351.89655172413796,553.3818181818182C331.4407732178765,552.4892836150985,291.18282155845844,552.691106784698,270.68965517241384,553.8909090909091C250.19648878636923,555.0907113971201,249.46810767369792,557.2884928399425,243.6206896551724,557.2C237.7732716366469,557.1115071600576,226.80681671226722,554.7367400373508,216.55172413793102,555.1636363636363C206.29663156359481,555.5905326899218,196.75290133930216,558.8190924652001,189.48275862068965,560C182.21261590207715,561.1809075347999,177.21606068914485,560.3141628291213,162.41379310344828,560C147.61152551775172,559.6858371708787,123.00354555929086,559.9242562183143,108.27586206896551,560C93.54817857864016,560.0757437816857,88.7007915564503,559.9888122976215,81.20689655172414,560C73.71300154699799,560.0111877023785,63.57259855973552,560.1204945911998,54.137931034482754,560C44.70326350922999,559.8795054088002,35.97433144598689,559.5292093375793,27.068965517241377,559.4909090909091C18.163599588495863,559.4526088442389,9.081799794247932,559.7263044221195,0,560Z"><title>Latin America and the Caribbean</title></path><path fill="#cccccc" d="M0,560C9.081799794247932,559.7822658190772,18.163599588495863,559.5645316381544,27.068965517241377,558.9818181818182C35.97433144598689,558.399104725482,44.70326350922998,557.4514119937323,54.137931034482754,557.7090909090908C63.57259855973553,557.9667698244493,73.71300154699799,559.4298203869157,81.20689655172414,560C88.7007915564503,560.5701796130843,93.54817857864016,560.2474882767866,108.27586206896551,560C123.00354555929086,559.7525117232134,147.6115255177517,559.5802265059377,162.41379310344828,558.2181818181818C177.21606068914488,556.856137130426,182.21261590207715,554.3043329721896,189.48275862068965,549.8181818181819C196.75290133930216,545.3320306641741,206.29663156359481,538.9115325143954,216.55172413793102,540.9090909090909C226.80681671226722,542.9066493037864,237.77327163664694,553.3222642429565,243.6206896551724,555.4181818181818C249.4681076736979,557.514099393407,250.19648878636923,551.290319604687,270.68965517241384,546.5090909090909C291.18282155845844,541.7278622134947,331.44077321787637,538.389184611022,351.89655172413796,538.3636363636364C372.35233023039956,538.3380881162508,373.0059355835047,541.6256692239525,378.9655172413793,542.9454545454546C384.9250988992539,544.2652398669567,396.19065686189816,543.6172294022595,406.0344827586207,543.1999999999999C415.87830865534323,542.7827705977404,424.3004024861441,542.5963222579184,433.10344827586204,542.6909090909091C441.90649406558,542.7854959238999,451.09049181421517,543.1611179297034,460.17241379310343,543.4545454545455C469.2543357719917,543.7479729793876,478.2341819811331,543.9592060232683,487.2413793103448,543.709090909091C496.2485766395566,543.4589757949136,505.2831250888387,542.7475125226781,514.3103448275862,543.4545454545455C523.3375645663336,544.1615783864129,532.3574555945461,546.2871075223828,541.3793103448277,546.7636363636364C550.4011650951093,547.2401652048899,559.4249835674602,546.0676937514264,568.448275862069,543.9636363636363C577.4715681566777,541.8595789758461,586.494334273544,538.8239356537289,595.5172413793103,539.1272727272727C604.5401484850767,539.4306098008166,613.5631965797427,543.0729272700215,622.5862068965517,541.4181818181818C631.6092172133608,539.763436366342,640.6321897523128,532.8116279934577,649.6551724137931,526.9090909090909C658.6781550752735,521.006553824724,667.7011478592821,516.1532880288751,676.7241379310344,511.3818181818182C685.7471280027868,506.6103483347613,694.7701153622829,501.9206744364964,703.7931034482759,500.6909090909091C712.8160915342689,499.46114374532175,721.8390803467594,501.6912869524118,730.8620689655172,500.94545454545454C739.885057584275,500.19962213849726,748.9080460093002,496.47781411749276,757.9310344827586,495.8545454545455C766.954022956217,495.2312767915982,775.9770114781086,497.7065474867082,785,500.1818181818182L785,511.6363636363636C775.9770114781086,507.5532949586839,766.954022956217,503.4702262810042,757.9310344827586,503.49090909090904C748.9080460093002,503.51159190081387,739.8850575842749,507.6360261983032,730.8620689655172,508.3272727272727C721.8390803467595,509.0185192562422,712.8160915342693,506.2765780166918,703.7931034482759,506.8C694.7701153622826,507.3234219833082,685.7471280027868,511.11220718947493,676.7241379310344,515.4545454545454C667.7011478592821,519.7968837196158,658.6781550752734,524.6927750435901,649.6551724137931,529.9636363636364C640.6321897523129,535.2344976836827,631.6092172133608,540.8803289998011,622.5862068965517,542.1818181818181C613.5631965797427,543.4833073638351,604.5401484850764,540.4404544117501,595.5172413793103,540.1454545454545C586.4943342735443,539.8504546791589,577.4715681566777,542.3033078986527,568.448275862069,544.2181818181818C559.4249835674602,546.133055737711,550.4011650951094,547.5099503572753,541.3793103448277,547.2727272727273C532.357455594546,547.0355041881792,523.3375645663334,545.1841633995186,514.3103448275862,544.7272727272727C505.2831250888389,544.2703820550269,496.24857663955675,545.2079414991953,487.2413793103448,545.4909090909091C478.2341819811329,545.7738766826229,469.25433577199163,545.4022524218822,460.17241379310343,545.4909090909091C451.0904918142152,545.579565759936,441.9064940655801,546.1285033587307,433.10344827586204,546.2545454545455C424.300402486144,546.3805875503602,415.8783086553431,546.0837341431951,406.0344827586207,546.2545454545455C396.1906568618983,546.4253567658958,384.925098899254,547.0638327957615,378.9655172413793,546C373.0059355835046,544.9361672042385,372.35233023039945,542.1700255828497,351.89655172413796,541.6727272727272C331.4407732178765,541.1754289626048,291.18282155845844,542.9469739637485,270.68965517241384,547.0181818181818C250.19648878636923,551.0893896726151,249.46810767369792,557.4602603803377,243.6206896551724,555.4181818181818C237.7732716366469,553.3761032560259,226.80681671226722,542.9210754239913,216.55172413793102,540.9090909090909C206.29663156359481,538.8971063941905,196.75290133930216,545.3281651964239,189.48275862068965,549.8181818181819C182.21261590207715,554.3081984399398,177.21606068914485,556.8571728812221,162.41379310344828,558.2181818181818C147.61152551775172,559.5791907551416,123.00354555929086,559.7522341877789,108.27586206896551,560C93.54817857864016,560.2477658122211,88.7007915564503,560.5702540040255,81.20689655172414,560C73.71300154699799,559.4297459959745,63.57259855973552,557.9667497961188,54.137931034482754,557.7090909090908C44.70326350922999,557.4514320220628,35.97433144598689,558.3991104478621,27.068965517241377,558.9818181818182C18.163599588495863,559.5645259157743,9.081799794247932,559.7822629578872,0,560Z"><title>Western Asia</title></path><path fill="#1f77b4" d="M0,559.4909090909091C9.081799794247932,558.64344808166,18.163599588495863,557.795987072411,27.068965517241377,557.7090909090908C35.97433144598689,557.6221947457707,44.70326350922998,558.2958634283793,54.137931034482754,557.7090909090908C63.57259855973553,557.1223183898023,73.71300154699799,555.2751046686166,81.20689655172414,555.1636363636363C88.7007915564503,555.0521680586561,93.54817857864016,556.6764451698813,108.27586206896551,557.4545454545455C123.00354555929086,558.2326457392097,147.6115255177517,558.1645691973133,162.41379310344828,556.4363636363637C177.21606068914488,554.7081580754141,182.21261590207715,551.3198234954114,189.48275862068965,547.0181818181818C196.75290133930216,542.7165401409522,206.29663156359481,537.5015913664961,216.55172413793102,539.6363636363636C226.80681671226722,541.7711359062312,237.77327163664694,551.2556292204223,243.6206896551724,553.6363636363636C249.4681076736979,556.017098052305,250.19648878636923,551.294073569997,270.68965517241384,546C291.18282155845844,540.705926430003,331.44077321787637,534.8408037723176,351.89655172413796,534.290909090909C372.35233023039956,533.7410144095005,373.0059355835047,538.5063477043691,378.9655172413793,537.0909090909091C384.9250988992539,535.6754704774492,396.19065686189816,528.0792599556605,406.0344827586207,526.9090909090909C415.87830865534323,525.7389218625212,424.3004024861441,530.9947942911701,433.10344827586204,532.7636363636364C441.90649406558,534.5324784361026,451.09049181421517,532.8142901523861,460.17241379310343,531.2363636363636C469.2543357719917,529.6584371203412,478.2341819811331,528.2207723720128,487.2413793103448,529.4545454545455C496.2485766395566,530.6883185370782,505.2831250888387,534.5935294504718,514.3103448275862,534.8C523.3375645663336,535.0064705495281,532.3574555945461,531.5142007351905,541.3793103448277,533.7818181818182C550.4011650951093,536.0494356284458,559.4249835674602,544.0769403360385,568.448275862069,540.9090909090909C577.4715681566777,537.7412414821432,586.494334273544,523.3780379206551,595.5172413793103,520.5454545454545C604.5401484850767,517.712871170254,613.5631965797427,526.4109079813411,622.5862068965517,526.6545454545454C631.6092172133608,526.8981829277498,640.6321897523128,518.687421063071,649.6551724137931,508.5818181818182C658.6781550752735,498.47621530056534,667.7011478592821,486.47577140273813,676.7241379310344,475.4909090909091C685.7471280027868,464.50604677908007,694.7701153622829,454.53676605324915,703.7931034482759,453.09090909090907C712.8160915342689,451.645052128569,721.8390803467594,458.72261892971966,730.8620689655172,459.45454545454544C739.885057584275,460.1864719793712,748.9080460093002,454.57275822787216,757.9310344827586,454.3636363636364C766.954022956217,454.1545144994006,775.9770114781086,459.3499845224276,785,464.54545454545456L785,500.1818181818182C775.9770114781086,497.7065474867082,766.954022956217,495.23127679159813,757.9310344827586,495.8545454545455C748.9080460093002,496.4778141174928,739.8850575842749,500.1996221384974,730.8620689655172,500.94545454545454C721.8390803467595,501.6912869524117,712.8160915342693,499.46114374532175,703.7931034482759,500.6909090909091C694.7701153622826,501.9206744364964,685.7471280027868,506.6103483347613,676.7241379310344,511.3818181818182C667.7011478592821,516.1532880288751,658.6781550752734,521.0065538247243,649.6551724137931,526.9090909090909C640.6321897523129,532.8116279934575,631.6092172133608,539.7634363663419,622.5862068965517,541.4181818181818C613.5631965797427,543.0729272700216,604.5401484850764,539.4306098008167,595.5172413793103,539.1272727272727C586.4943342735443,538.8239356537288,577.4715681566777,541.859578975846,568.448275862069,543.9636363636363C559.4249835674602,546.0676937514265,550.4011650951094,547.2401652048899,541.3793103448277,546.7636363636364C532.357455594546,546.2871075223828,523.3375645663334,544.1615783864128,514.3103448275862,543.4545454545455C505.2831250888389,542.7475125226782,496.24857663955675,543.4589757949136,487.2413793103448,543.709090909091C478.2341819811329,543.9592060232683,469.25433577199163,543.7479729793877,460.17241379310343,543.4545454545455C451.0904918142152,543.1611179297033,441.9064940655801,542.7854959238999,433.10344827586204,542.6909090909091C424.300402486144,542.5963222579184,415.8783086553431,542.7827705977404,406.0344827586207,543.1999999999999C396.1906568618983,543.6172294022595,384.925098899254,544.2652398669568,378.9655172413793,542.9454545454546C373.0059355835046,541.6256692239524,372.35233023039945,538.3380881162508,351.89655172413796,538.3636363636364C331.4407732178765,538.389184611022,291.18282155845844,541.7278622134945,270.68965517241384,546.5090909090909C250.19648878636923,551.2903196046873,249.46810767369792,557.514099393407,243.6206896551724,555.4181818181818C237.7732716366469,553.3222642429565,226.80681671226722,542.9066493037865,216.55172413793102,540.9090909090909C206.29663156359481,538.9115325143953,196.75290133930216,545.3320306641742,189.48275862068965,549.8181818181819C182.21261590207715,554.3043329721895,177.21606068914485,556.8561371304257,162.41379310344828,558.2181818181818C147.61152551775172,559.580226505938,123.00354555929086,559.7525117232134,108.27586206896551,560C93.54817857864016,560.2474882767866,88.7007915564503,560.5701796130844,81.20689655172414,560C73.71300154699799,559.4298203869156,63.57259855973552,557.9667698244492,54.137931034482754,557.7090909090908C44.70326350922999,557.4514119937324,35.97433144598689,558.399104725482,27.068965517241377,558.9818181818182C18.163599588495863,559.5645316381544,9.081799794247932,559.7822658190772,0,560Z"><title>Australasia</title></path><path fill="#cccccc" d="M0,546.2545454545455C9.081799794247932,509.09920054411145,18.163599588495863,471.94385563367734,27.068965517241377,480.07272727272726C35.97433144598689,488.2015989117772,44.70326350922998,541.6146871003115,54.137931034482754,553.6363636363636C63.57259855973553,565.6580401724158,73.71300154699799,536.2883050559859,81.20689655172414,529.709090909091C88.7007915564503,523.129876762196,93.54817857864016,539.3411835848353,108.27586206896551,523.8545454545455C123.00354555929086,508.36790732425567,147.6115255177517,461.1833242410368,162.41379310344828,452.8363636363636C177.21606068914488,444.4894030316904,182.21261590207715,474.9800649055624,189.48275862068965,482.10909090909087C196.75290133930216,489.2381169126193,206.29663156359481,473.00550704580434,216.55172413793102,485.9272727272727C226.80681671226722,498.849038408741,237.77327163664694,540.925179638493,243.6206896551724,529.9636363636364C249.4681076736979,519.0020930887798,250.19648878636923,455.0028653093145,270.68965517241384,444.4363636363637C291.18282155845844,433.8698619634129,331.44077321787637,476.736086396977,351.89655172413796,493.56363636363636C372.35233023039956,510.39118633029574,373.0059355835047,501.1800618300505,378.9655172413793,501.2C384.9250988992539,501.2199381699495,396.19065686189816,510.4709390100936,406.0344827586207,516.4727272727273C415.87830865534323,522.474515535361,424.3004024861441,525.2270912204845,433.10344827586204,524.6181818181818C441.90649406558,524.0092724158792,451.09049181421517,520.0388779261505,460.17241379310343,513.4181818181819C469.2543357719917,506.7974857102133,478.2341819811331,497.526487984005,487.2413793103448,488.21818181818185C496.2485766395566,478.9098756523587,505.2831250888387,469.5642610469206,514.3103448275862,462.25454545454545C523.3375645663336,454.9448298621703,532.3574555945461,449.671013282858,541.3793103448277,451.81818181818187C550.4011650951093,453.96535035350576,559.4249835674602,463.53350400346557,568.448275862069,463.78181818181815C577.4715681566777,464.03013236017074,586.494334273544,454.9586070669163,595.5172413793103,447.2363636363636C604.5401484850767,439.5141202058109,613.5631965797427,433.1411586379603,622.5862068965517,432.21818181818185C631.6092172133608,431.2952049984034,640.6321897523128,435.82221292669675,649.6551724137931,432.7272727272727C658.6781550752735,429.63233252784863,667.7011478592821,418.9154442007069,676.7241379310344,407.2727272727273C685.7471280027868,395.63001034474775,694.7701153622829,383.0614648159305,703.7931034482759,379.5272727272727C712.8160915342689,375.9930806386149,721.8390803467594,381.4932419901166,730.8620689655172,384.1090909090909C739.885057584275,386.72493982806526,748.9080460093002,386.4564763145121,757.9310344827586,388.6909090909091C766.954022956217,390.9253418673061,775.9770114781086,395.6626709336531,785,400.40000000000003L785,464.54545454545456C775.9770114781086,459.34998452242746,766.954022956217,454.15451449940036,757.9310344827586,454.3636363636364C748.9080460093002,454.5727582278724,739.8850575842749,460.1864719793713,730.8620689655172,459.45454545454544C721.8390803467595,458.7226189297196,712.8160915342693,451.645052128569,703.7931034482759,453.09090909090907C694.7701153622826,454.53676605324915,685.7471280027868,464.5060467790801,676.7241379310344,475.4909090909091C667.7011478592821,486.4757714027381,658.6781550752734,498.4762153005653,649.6551724137931,508.5818181818182C640.6321897523129,518.6874210630712,631.6092172133608,526.8981829277498,622.5862068965517,526.6545454545454C613.5631965797427,526.4109079813411,604.5401484850764,517.712871170254,595.5172413793103,520.5454545454545C586.4943342735443,523.3780379206551,577.4715681566777,537.7412414821431,568.448275862069,540.9090909090909C559.4249835674602,544.0769403360387,550.4011650951094,536.0494356284458,541.3793103448277,533.7818181818182C532.357455594546,531.5142007351905,523.3375645663334,535.006470549528,514.3103448275862,534.8C505.2831250888389,534.5935294504719,496.24857663955675,530.6883185370782,487.2413793103448,529.4545454545455C478.2341819811329,528.2207723720128,469.25433577199163,529.6584371203412,460.17241379310343,531.2363636363636C451.0904918142152,532.8142901523861,441.9064940655801,534.5324784361026,433.10344827586204,532.7636363636364C424.300402486144,530.9947942911701,415.8783086553431,525.738921862521,406.0344827586207,526.9090909090909C396.1906568618983,528.0792599556607,384.925098899254,535.675470477449,378.9655172413793,537.0909090909091C373.0059355835046,538.5063477043692,372.35233023039945,533.7410144095005,351.89655172413796,534.290909090909C331.4407732178765,534.8408037723176,291.18282155845844,540.7059264300032,270.68965517241384,546C250.19648878636923,551.2940735699968,249.46810767369792,556.017098052305,243.6206896551724,553.6363636363636C237.7732716366469,551.2556292204223,226.80681671226722,541.7711359062312,216.55172413793102,539.6363636363636C206.29663156359481,537.5015913664961,196.75290133930216,542.7165401409522,189.48275862068965,547.0181818181818C182.21261590207715,551.3198234954114,177.21606068914485,554.7081580754141,162.41379310344828,556.4363636363637C147.61152551775172,558.1645691973133,123.00354555929086,558.2326457392098,108.27586206896551,557.4545454545455C93.54817857864016,556.6764451698812,88.7007915564503,555.052168058656,81.20689655172414,555.1636363636363C73.71300154699799,555.2751046686167,63.57259855973552,557.1223183898022,54.137931034482754,557.7090909090908C44.70326350922999,558.2958634283794,35.97433144598689,557.6221947457707,27.068965517241377,557.7090909090908C18.163599588495863,557.795987072411,9.081799794247932,558.64344808166,0,559.4909090909091Z"><title>Western Europe</title></path><path fill="#d62728" d="M0,543.1999999999999C9.081799794247932,502.04395755433336,18.163599588495863,460.8879151086666,27.068965517241377,469.6363636363636C35.97433144598689,478.38481216406063,44.70326350922998,537.0377516651207,54.137931034482754,550.5818181818182C63.57259855973553,564.1258846985157,73.71300154699799,532.5610782308504,81.20689655172414,523.0909090909091C88.7007915564503,513.6207399509678,93.54817857864016,526.2452081387506,108.27586206896551,512.6545454545454C123.00354555929086,499.06388277034023,147.6115255177517,459.2580892141474,162.41379310344828,450.2909090909091C177.21606068914488,441.32372896767083,182.21261590207715,463.1951622773872,189.48275862068965,467.3454545454545C196.75290133930216,471.4957468135218,206.29663156359481,457.9248980399401,216.55172413793102,472.1818181818182C226.80681671226722,486.43873832369627,237.77327163664694,528.5234273810341,243.6206896551724,515.9636363636364C249.4681076736979,503.40384534623865,250.19648878636923,436.1995742541053,270.68965517241384,426.6181818181818C291.18282155845844,417.03678938225835,331.44077321787637,465.07827560254447,351.89655172413796,472.94545454545454C372.35233023039956,480.8126334883646,373.0059355835047,448.5055051538985,378.9655172413793,437.05454545454546C384.9250988992539,425.6035857551924,396.19065686189816,435.00879469095224,406.0344827586207,441.1272727272727C415.87830865534323,447.2457507635932,424.3004024861441,450.0774979004743,433.10344827586204,446.21818181818185C441.90649406558,442.35886573588937,451.09049181421517,431.80848643442346,460.17241379310343,422.03636363636366C469.2543357719917,412.26424083830386,478.2341819811331,403.27037454365046,487.2413793103448,390.4727272727273C496.2485766395566,377.67508000180413,505.2831250888387,361.07365175461103,514.3103448275862,353.0545454545454C523.3375645663336,345.0354391544798,532.3574555945461,345.5986548015414,541.3793103448277,318.94545454545454C550.4011650951093,292.2922542893677,559.4249835674602,238.42263813013227,568.448275862069,267.52727272727276C577.4715681566777,296.63190732441325,586.494334273544,408.7107926779295,595.5172413793103,420.25454545454545C604.5401484850767,431.7982982311614,613.5631965797427,342.8069184308768,622.5862068965517,314.8727272727273C631.6092172133608,286.93853611457774,640.6321897523128,320.0615335985633,649.6551724137931,333.9636363636364C658.6781550752735,347.8657391287095,667.7011478592821,342.54694717487007,676.7241379310344,327.3454545454545C685.7471280027868,312.14396191603896,694.7701153622829,287.059768611047,703.7931034482759,278.21818181818185C712.8160915342689,269.3765950253167,721.8390803467594,276.7776147445783,730.8620689655172,285.6C739.885057584275,294.4223852554218,748.9080460093002,304.66613604700365,757.9310344827586,313.3454545454546C766.954022956217,322.0247730439055,775.9770114781086,329.1396592492255,785,336.25454545454545L785,400.40000000000003C775.9770114781086,395.662670933653,766.954022956217,390.92534186730603,757.9310344827586,388.6909090909091C748.9080460093002,386.45647631451214,739.8850575842749,386.72493982806526,730.8620689655172,384.1090909090909C721.8390803467595,381.4932419901166,712.8160915342693,375.9930806386149,703.7931034482759,379.5272727272727C694.7701153622826,383.0614648159305,685.7471280027868,395.6300103447478,676.7241379310344,407.2727272727273C667.7011478592821,418.9154442007068,658.6781550752734,429.63233252784863,649.6551724137931,432.7272727272727C640.6321897523129,435.82221292669675,631.6092172133608,431.2952049984032,622.5862068965517,432.21818181818185C613.5631965797427,433.1411586379605,604.5401484850764,439.5141202058112,595.5172413793103,447.2363636363636C586.4943342735443,454.958607066916,577.4715681566777,464.0301323601706,568.448275862069,463.78181818181815C559.4249835674602,463.5335040034657,550.4011650951094,453.9653503535058,541.3793103448277,451.81818181818187C532.357455594546,449.6710132828579,523.3375645663334,454.94482986217037,514.3103448275862,462.25454545454545C505.2831250888389,469.56426104692054,496.24857663955675,478.9098756523586,487.2413793103448,488.21818181818185C478.2341819811329,497.5264879840051,469.25433577199163,506.79748571021344,460.17241379310343,513.4181818181819C451.0904918142152,520.0388779261503,441.9064940655801,524.0092724158792,433.10344827586204,524.6181818181818C424.300402486144,525.2270912204845,415.8783086553431,522.474515535361,406.0344827586207,516.4727272727273C396.1906568618983,510.4709390100936,384.925098899254,501.2199381699494,378.9655172413793,501.2C373.0059355835046,501.1800618300506,372.35233023039945,510.3911863302958,351.89655172413796,493.56363636363636C331.4407732178765,476.73608639697693,291.18282155845844,433.86986196341303,270.68965517241384,444.4363636363637C250.19648878636923,455.00286530931436,249.46810767369792,519.0020930887797,243.6206896551724,529.9636363636364C237.7732716366469,540.9251796384931,226.80681671226722,498.8490384087411,216.55172413793102,485.9272727272727C206.29663156359481,473.0055070458043,196.75290133930216,489.2381169126193,189.48275862068965,482.10909090909087C182.21261590207715,474.9800649055624,177.21606068914485,444.48940303169024,162.41379310344828,452.8363636363636C147.61152551775172,461.183324241037,123.00354555929086,508.3679073242557,108.27586206896551,523.8545454545455C93.54817857864016,539.3411835848352,88.7007915564503,523.1298767621959,81.20689655172414,529.709090909091C73.71300154699799,536.288305055986,63.57259855973552,565.6580401724158,54.137931034482754,553.6363636363636C44.70326350922999,541.6146871003115,35.97433144598689,488.20159891177724,27.068965517241377,480.07272727272726C18.163599588495863,471.9438556336773,9.081799794247932,509.09920054411134,0,546.2545454545455Z"><title>Eastern Europe</title></path><path fill="#e377c2" d="M0,538.1090909090909C9.081799794247932,506.0701625791903,18.163599588495863,474.0312342492895,27.068965517241377,455.1272727272727C35.97433144598689,436.2233112052559,44.70326350922998,430.4543164911233,54.137931034482754,441.3818181818182C63.57259855973553,452.3093198725131,73.71300154699799,479.9333179680355,81.20689655172414,494.0727272727273C88.7007915564503,508.21213657741913,93.54817857864016,508.8669570912801,108.27586206896551,484.90909090909093C123.00354555929086,460.9512247269018,147.6115255177517,412.3806718486624,162.41379310344828,397.0909090909091C177.21606068914488,381.8011463331558,182.21261590207715,399.79217369588906,189.48275862068965,411.8545454545455C196.75290133930216,423.9169172132019,206.29663156359481,430.05063336778124,216.55172413793102,442.40000000000003C226.80681671226722,454.7493666322188,237.77327163664694,473.3143837420771,243.6206896551724,460.2181818181818C249.4681076736979,447.1219798942865,250.19648878636923,402.3645589366375,270.68965517241384,397.59999999999997C291.18282155845844,392.83544106336245,331.44077321787637,428.0637441477361,351.89655172413796,433.74545454545455C372.35233023039956,439.427164943173,373.0059355835047,415.5622826542362,378.9655172413793,402.94545454545454C384.9250988992539,390.3286264366729,396.19065686189816,388.9598525080466,406.0344827586207,391.7454545454545C415.87830865534323,394.5310565828624,424.3004024861441,401.4710345863043,433.10344827586204,393.01818181818186C441.90649406558,384.5653290500594,451.09049181421517,360.7196455103723,460.17241379310343,353.30909090909086C469.2543357719917,345.8985363078094,478.2341819811331,354.9231106449336,487.2413793103448,350C496.2485766395566,345.0768893550664,505.2831250888387,326.20609372807496,514.3103448275862,311.05454545454546C523.3375645663336,295.90299718101596,532.3574555945461,284.47069626094816,541.3793103448277,274.1454545454545C550.4011650951093,263.8202128299609,559.4249835674602,254.60203031904155,568.448275862069,267.52727272727276C577.4715681566777,280.452515135504,586.494334273544,315.52118246288575,595.5172413793103,313.6C604.5401484850767,311.6788175371143,613.5631965797427,272.76778528396113,622.5862068965517,260.4C631.6092172133608,248.03221471603882,640.6321897523128,262.20767640126945,649.6551724137931,265.7454545454545C658.6781550752735,269.28323268963953,667.7011478592821,262.18332729277887,676.7241379310344,248.18181818181822C685.7471280027868,234.18030907085756,694.7701153622829,213.27719624579686,703.7931034482759,207.2C712.8160915342689,201.12280375420312,721.8390803467594,209.87152408767008,730.8620689655172,214.0727272727273C739.885057584275,218.2739304577845,748.9080460093002,217.92761649443193,757.9310344827586,224.5090909090909C766.954022956217,231.09056532374987,775.9770114781086,244.59982811642038,785,258.1090909090909L785,336.25454545454545C775.9770114781086,329.1396592492255,766.954022956217,322.02477304390544,757.9310344827586,313.3454545454546C748.9080460093002,304.6661360470037,739.8850575842749,294.4223852554218,730.8620689655172,285.6C721.8390803467595,276.7776147445783,712.8160915342693,269.37659502531676,703.7931034482759,278.21818181818185C694.7701153622826,287.05976861104693,685.7471280027868,312.14396191603885,676.7241379310344,327.3454545454545C667.7011478592821,342.5469471748702,658.6781550752734,347.8657391287095,649.6551724137931,333.9636363636364C640.6321897523129,320.0615335985633,631.6092172133608,286.93853611457774,622.5862068965517,314.8727272727273C613.5631965797427,342.8069184308768,604.5401484850764,431.79829823116137,595.5172413793103,420.25454545454545C586.4943342735443,408.71079267792953,577.4715681566777,296.63190732441325,568.448275862069,267.52727272727276C559.4249835674602,238.42263813013227,550.4011650951094,292.29225428936763,541.3793103448277,318.94545454545454C532.357455594546,345.59865480154144,523.3375645663334,345.03543915447966,514.3103448275862,353.0545454545454C505.2831250888389,361.07365175461115,496.24857663955675,377.67508000180413,487.2413793103448,390.4727272727273C478.2341819811329,403.27037454365046,469.25433577199163,412.2642408383038,460.17241379310343,422.03636363636366C451.0904918142152,431.8084864344235,441.9064940655801,442.35886573588954,433.10344827586204,446.21818181818185C424.300402486144,450.07749790047416,415.8783086553431,447.2457507635931,406.0344827586207,441.1272727272727C396.1906568618983,435.00879469095236,384.925098899254,425.60358575519246,378.9655172413793,437.05454545454546C373.0059355835046,448.50550515389847,372.35233023039945,480.81263348836455,351.89655172413796,472.94545454545454C331.4407732178765,465.0782756025445,291.18282155845844,417.0367893822583,270.68965517241384,426.6181818181818C250.19648878636923,436.19957425410536,249.46810767369792,503.40384534623865,243.6206896551724,515.9636363636364C237.7732716366469,528.5234273810341,226.80681671226722,486.4387383236962,216.55172413793102,472.1818181818182C206.29663156359481,457.92489803994016,196.75290133930216,471.4957468135218,189.48275862068965,467.3454545454545C182.21261590207715,463.1951622773872,177.21606068914485,441.32372896767083,162.41379310344828,450.2909090909091C147.61152551775172,459.2580892141474,123.00354555929086,499.06388277034023,108.27586206896551,512.6545454545454C93.54817857864016,526.2452081387506,88.7007915564503,513.6207399509678,81.20689655172414,523.0909090909091C73.71300154699799,532.5610782308504,63.57259855973552,564.1258846985156,54.137931034482754,550.5818181818182C44.70326350922999,537.0377516651208,35.97433144598689,478.38481216406046,27.068965517241377,469.6363636363636C18.163599588495863,460.8879151086668,9.081799794247932,502.04395755433336,0,543.1999999999999Z"><title>Northern America</title></path><path fill="#cccccc" d="M0,538.1090909090909C9.081799794247932,506.05450516459075,18.163599588495863,473.9999194200905,27.068965517241377,455.1272727272727C35.97433144598689,436.25462603445493,44.70326350922998,430.5639183933198,54.137931034482754,441.3818181818182C63.57259855973553,452.19971797031656,73.71300154699799,479.52622518844873,81.20689655172414,493.56363636363636C88.7007915564503,507.601047538824,93.54817857864016,508.349362671067,108.27586206896551,483.1272727272728C123.00354555929086,457.90518278347855,147.6115255177517,406.7126877636474,162.41379310344828,391.7454545454545C177.21606068914488,376.7782213272616,182.21261590207715,398.0362499107067,189.48275862068965,411.0909090909091C196.75290133930216,424.14556827111153,206.29663156359481,428.9968580480714,216.55172413793102,440.8727272727273C226.80681671226722,452.7485964973832,237.77327163664694,471.6490451697352,243.6206896551724,458.94545454545454C249.4681076736979,446.2418639211739,250.19648878636923,401.93423400026046,270.68965517241384,397.3454545454545C291.18282155845844,392.75667509064857,331.44077321787637,427.88674610195017,351.89655172413796,432.7272727272727C372.35233023039956,437.5677993525952,373.0059355835047,412.1187815919386,378.9655172413793,399.3818181818182C384.9250988992539,386.64485477169774,396.19065686189816,386.6199457121134,406.0344827586207,389.96363636363634C415.87830865534323,393.3073270151593,424.3004024861441,400.0196173777896,433.10344827586204,391.7454545454545C441.90649406558,383.4712917131194,451.09049181421517,360.21067568581884,460.17241379310343,352.2909090909091C469.2543357719917,344.3711424959994,478.2341819811331,351.79222533348053,487.2413793103448,345.67272727272723C496.2485766395566,339.5532292119739,505.2831250888387,319.89315025298623,514.3103448275862,306.21818181818185C523.3375645663336,292.54321338337746,532.3574555945461,284.85335547275645,541.3793103448277,274.1454545454545C550.4011650951093,263.4375536181526,559.4249835674602,249.71160967416955,568.448275862069,261.6727272727273C577.4715681566777,273.633844871285,586.494334273544,311.28202401238343,595.5172413793103,310.79999999999995C604.5401484850767,310.3179759876165,613.5631965797427,271.7057488217512,622.5862068965517,257.59999999999997C631.6092172133608,243.49425117824876,640.6321897523128,253.89498070061148,649.6551724137931,255.5636363636364C658.6781550752735,257.2322920266613,667.7011478592821,250.16887383034845,676.7241379310344,235.96363636363637C685.7471280027868,221.7583988969243,694.7701153622829,200.41134215981288,703.7931034482759,195.23636363636365C712.8160915342689,190.06138511291442,721.8390803467594,201.05848480312733,730.8620689655172,204.65454545454546C739.885057584275,208.25060610596358,748.9080460093002,204.44562771858696,757.9310344827586,210.76363636363635C766.954022956217,217.08164500868574,775.9770114781086,233.52264068616108,785,249.9636363636364L785,258.1090909090909C775.9770114781086,244.59982811642038,766.954022956217,231.09056532374984,757.9310344827586,224.5090909090909C748.9080460093002,217.92761649443196,739.8850575842749,218.27393045778453,730.8620689655172,214.0727272727273C721.8390803467595,209.87152408767005,712.8160915342693,201.12280375420312,703.7931034482759,207.2C694.7701153622826,213.27719624579686,685.7471280027868,234.18030907085756,676.7241379310344,248.18181818181822C667.7011478592821,262.18332729277887,658.6781550752734,269.28323268963953,649.6551724137931,265.7454545454545C640.6321897523129,262.20767640126945,631.6092172133608,248.03221471603877,622.5862068965517,260.4C613.5631965797427,272.7677852839612,604.5401484850764,311.6788175371144,595.5172413793103,313.6C586.4943342735443,315.52118246288563,577.4715681566777,280.4525151355039,568.448275862069,267.52727272727276C559.4249835674602,254.6020303190416,550.4011650951094,263.820212829961,541.3793103448277,274.1454545454545C532.357455594546,284.47069626094805,523.3375645663334,295.90299718101585,514.3103448275862,311.05454545454546C505.2831250888389,326.2060937280751,496.24857663955675,345.0768893550664,487.2413793103448,350C478.2341819811329,354.9231106449336,469.25433577199163,345.8985363078094,460.17241379310343,353.30909090909086C451.0904918142152,360.7196455103723,441.9064940655801,384.5653290500594,433.10344827586204,393.01818181818186C424.300402486144,401.4710345863043,415.8783086553431,394.5310565828623,406.0344827586207,391.7454545454545C396.1906568618983,388.9598525080467,384.925098899254,390.328626436673,378.9655172413793,402.94545454545454C373.0059355835046,415.56228265423607,372.35233023039945,439.42716494317295,351.89655172413796,433.74545454545455C331.4407732178765,428.06374414773614,291.18282155845844,392.8354410633624,270.68965517241384,397.59999999999997C250.19648878636923,402.36455893663754,249.46810767369792,447.12197989428654,243.6206896551724,460.2181818181818C237.7732716366469,473.31438374207704,226.80681671226722,454.7493666322188,216.55172413793102,442.40000000000003C206.29663156359481,430.05063336778124,196.75290133930216,423.91691721320166,189.48275862068965,411.8545454545455C182.21261590207715,399.7921736958893,177.21606068914485,381.801146333156,162.41379310344828,397.0909090909091C147.61152551775172,412.38067184866225,123.00354555929086,460.9512247269017,108.27586206896551,484.90909090909093C93.54817857864016,508.86695709128014,88.7007915564503,508.21213657741913,81.20689655172414,494.0727272727273C73.71300154699799,479.9333179680355,63.57259855973552,452.3093198725129,54.137931034482754,441.3818181818182C44.70326350922999,430.45431649112345,35.97433144598689,436.223311205256,27.068965517241377,455.1272727272727C18.163599588495863,474.03123424928947,9.081799794247932,506.0701625791902,0,538.1090909090909Z"><title>Sub-Saharan Africa</title></path><path fill="#2ca02c" d="M0,538.1090909090909C9.081799794247932,506.05252323985803,18.163599588495863,473.9959555706251,27.068965517241377,455.1272727272727C35.97433144598689,436.25858988392037,44.70326350922998,430.57779186644905,54.137931034482754,441.3818181818182C63.57259855973553,452.1858444971873,73.71300154699799,479.4746951453973,81.20689655172414,493.56363636363636C88.7007915564503,507.65257758187545,93.54817857864016,508.5416093701437,108.27586206896551,483.1272727272728C123.00354555929086,457.71293608440186,147.6115255177517,405.99523101039176,162.41379310344828,390.9818181818182C177.21606068914488,375.96840535324463,182.21261590207715,397.65928477010755,189.48275862068965,410.8363636363636C196.75290133930216,424.0134425026197,206.29663156359481,428.67672081826896,216.55172413793102,438.83636363636367C226.80681671226722,448.9960064544584,237.77327163664694,464.6520137749984,243.6206896551724,451.05454545454546C249.4681076736979,437.4570771340925,250.19648878636923,394.6061331726468,270.68965517241384,392C291.18282155845844,389.3938668273532,331.44077321787637,427.0325444435053,351.89655172413796,432.21818181818185C372.35233023039956,437.4038191928584,373.0059355835047,410.1364163260596,378.9655172413793,395.8181818181818C384.9250988992539,381.49994731030404,396.19065686189816,380.1308811613475,406.0344827586207,383.3454545454546C415.87830865534323,386.56002792956167,424.3004024861441,394.35824084673226,433.10344827586204,384.1090909090909C441.90649406558,373.8599409714496,451.09049181421517,345.5634281789963,460.17241379310343,335.23636363636365C469.2543357719917,324.909299093731,478.2341819811331,332.55168280091925,487.2413793103448,326.8363636363636C496.2485766395566,321.121044471808,505.2831250888387,302.04802243550864,514.3103448275862,287.6363636363636C523.3375645663336,273.2247048372186,532.3574555945461,263.474409275228,541.3793103448277,258.6181818181818C550.4011650951093,253.7619543611356,559.4249835674602,253.79979500903363,568.448275862069,259.3818181818182C577.4715681566777,264.9638413546027,586.494334273544,276.09004705227375,595.5172413793103,268.03636363636366C604.5401484850767,259.9826802204536,613.5631965797427,232.74910769096243,622.5862068965517,219.16363636363636C631.6092172133608,205.57816503631028,640.6321897523128,205.6407949111491,649.6551724137931,201.85454545454547C658.6781550752735,198.06829599794185,667.7011478592821,190.43316720989552,676.7241379310344,178.18181818181822C685.7471280027868,165.93046915374092,694.7701153622829,149.06289988563248,703.7931034482759,143.30909090909088C712.8160915342689,137.5552819325493,721.8390803467594,142.91523324757446,730.8620689655172,139.23636363636365C739.885057584275,135.55749402515283,748.9080460093002,122.839803487706,757.9310344827586,127.52727272727276C766.954022956217,132.2147419668395,775.9770114781086,154.30737098341973,785,176.39999999999998L785,249.9636363636364C775.9770114781086,233.52264068616105,766.954022956217,217.0816450086857,757.9310344827586,210.76363636363635C748.9080460093002,204.445627718587,739.8850575842749,208.2506061059636,730.8620689655172,204.65454545454546C721.8390803467595,201.0584848031273,712.8160915342693,190.0613851129144,703.7931034482759,195.23636363636365C694.7701153622826,200.4113421598129,685.7471280027868,221.7583988969243,676.7241379310344,235.96363636363637C667.7011478592821,250.16887383034845,658.6781550752734,257.23229202666136,649.6551724137931,255.5636363636364C640.6321897523129,253.89498070061143,631.6092172133608,243.4942511782487,622.5862068965517,257.59999999999997C613.5631965797427,271.70574882175123,604.5401484850764,310.3179759876165,595.5172413793103,310.79999999999995C586.4943342735443,311.28202401238343,577.4715681566777,273.63384487128496,568.448275862069,261.6727272727273C559.4249835674602,249.71160967416958,550.4011650951094,263.4375536181526,541.3793103448277,274.1454545454545C532.357455594546,284.85335547275645,523.3375645663334,292.54321338337746,514.3103448275862,306.21818181818185C505.2831250888389,319.89315025298623,496.24857663955675,339.553229211974,487.2413793103448,345.67272727272723C478.2341819811329,351.7922253334805,469.25433577199163,344.37114249599944,460.17241379310343,352.2909090909091C451.0904918142152,360.2106756858188,441.9064940655801,383.4712917131194,433.10344827586204,391.7454545454545C424.300402486144,400.0196173777896,415.8783086553431,393.3073270151593,406.0344827586207,389.96363636363634C396.1906568618983,386.6199457121134,384.925098899254,386.6448547716977,378.9655172413793,399.3818181818182C373.0059355835046,412.11878159193867,372.35233023039945,437.56779935259516,351.89655172413796,432.7272727272727C331.4407732178765,427.8867461019502,291.18282155845844,392.75667509064857,270.68965517241384,397.3454545454545C250.19648878636923,401.93423400026046,249.46810767369792,446.2418639211739,243.6206896551724,458.94545454545454C237.7732716366469,471.6490451697352,226.80681671226722,452.7485964973832,216.55172413793102,440.8727272727273C206.29663156359481,428.9968580480714,196.75290133930216,424.14556827111153,189.48275862068965,411.0909090909091C182.21261590207715,398.0362499107067,177.21606068914485,376.7782213272615,162.41379310344828,391.7454545454545C147.61152551775172,406.71268776364747,123.00354555929086,457.90518278347866,108.27586206896551,483.1272727272728C93.54817857864016,508.3493626710669,88.7007915564503,507.60104753882405,81.20689655172414,493.56363636363636C73.71300154699799,479.5262251884487,63.57259855973552,452.19971797031656,54.137931034482754,441.3818181818182C44.70326350922999,430.5639183933198,35.97433144598689,436.25462603445504,27.068965517241377,455.1272727272727C18.163599588495863,473.9999194200904,9.081799794247932,506.05450516459064,0,538.1090909090909Z"><title>East Asia</title></path><path fill="#cccccc" d="M0,524.8727272727273C9.081799794247932,497.5552156779404,18.163599588495863,470.2377040831537,27.068965517241377,453.6C35.97433144598689,436.96229591684636,44.70326350922998,431.00439934532596,54.137931034482754,440.8727272727273C63.57259855973553,450.7410552001286,73.71300154699799,476.4356076264514,81.20689655172414,491.0181818181818C88.7007915564503,505.60075600991223,93.54817857864016,509.07135196705053,108.27586206896551,477.2727272727273C123.00354555929086,445.4741025784041,147.6115255177517,378.40625723261934,162.41379310344828,362.2181818181818C177.21606068914488,346.03010640374424,182.21261590207715,380.721800920654,189.48275862068965,396.5818181818182C196.75290133930216,412.44183544298244,206.29663156359481,409.47017544840116,216.55172413793102,417.2C226.80681671226722,424.9298245515988,237.77327163664694,443.3611336493778,243.6206896551724,431.2C249.4681076736979,419.0388663506222,250.19648878636923,376.2852899540875,270.68965517241384,372.9090909090909C291.18282155845844,369.53289186409427,331.44077321787637,405.5340701706358,351.89655172413796,410.07272727272726C372.35233023039956,414.6113843748187,373.0059355835047,387.68752027246006,378.9655172413793,375.45454545454544C384.9250988992539,363.2215706366308,396.19065686189816,365.6794851031601,406.0344827586207,365.5272727272727C415.87830865534323,365.3750603513853,424.3004024861441,362.61272113308115,433.10344827586204,352.5454545454545C441.90649406558,342.47818795782786,451.09049181421517,325.10599400087864,460.17241379310343,318.6909090909091C469.2543357719917,312.27582418093954,478.2341819811331,316.8178483179494,487.2413793103448,311.05454545454546C496.2485766395566,305.2912425911415,505.2831250888387,289.22261272732374,514.3103448275862,275.9272727272727C523.3375645663336,262.6319327272216,532.3574555945461,252.1098825909372,541.3793103448277,243.85454545454544C550.4011650951093,235.5992083181537,559.4249835674602,229.61058418165464,568.448275862069,228.07272727272726C577.4715681566777,226.53487036379988,586.494334273544,229.44778068244415,595.5172413793103,223.74545454545455C604.5401484850767,218.04312840846495,613.5631965797427,203.7255658158414,622.5862068965517,193.96363636363634C631.6092172133608,184.20170691143127,640.6321897523128,178.99541059964466,649.6551724137931,167.49090909090907C658.6781550752735,155.98640758217348,667.7011478592821,138.18370087648896,676.7241379310344,125.74545454545452C685.7471280027868,113.30720821442009,694.7701153622829,106.23342225803572,703.7931034482759,100.54545454545456C712.8160915342689,94.8574868328734,721.8390803467594,90.55533736409532,730.8620689655172,87.81818181818184C739.885057584275,85.08102627226836,748.9080460093002,83.90886464921951,757.9310344827586,90.1090909090909C766.954022956217,96.30931716896228,775.9770114781086,109.88193131175387,785,123.45454545454545L785,176.39999999999998C775.9770114781086,154.30737098341973,766.954022956217,132.21474196683948,757.9310344827586,127.52727272727276C748.9080460093002,122.83980348770605,739.8850575842749,135.5574940251529,730.8620689655172,139.23636363636365C721.8390803467595,142.9152332475744,712.8160915342693,137.55528193254926,703.7931034482759,143.30909090909088C694.7701153622826,149.0628998856325,685.7471280027868,165.93046915374094,676.7241379310344,178.18181818181822C667.7011478592821,190.4331672098955,658.6781550752734,198.0682959979418,649.6551724137931,201.85454545454547C640.6321897523129,205.64079491114916,631.6092172133608,205.57816503631028,622.5862068965517,219.16363636363636C613.5631965797427,232.74910769096243,604.5401484850764,259.98268022045363,595.5172413793103,268.03636363636366C586.4943342735443,276.0900470522737,577.4715681566777,264.96384135460266,568.448275862069,259.3818181818182C559.4249835674602,253.79979500903366,550.4011650951094,253.76195436113557,541.3793103448277,258.6181818181818C532.357455594546,263.4744092752281,523.3375645663334,273.22470483721867,514.3103448275862,287.6363636363636C505.2831250888389,302.0480224355086,496.24857663955675,321.12104447180803,487.2413793103448,326.8363636363636C478.2341819811329,332.5516828009192,469.25433577199163,324.9092990937311,460.17241379310343,335.23636363636365C451.0904918142152,345.5634281789962,441.9064940655801,373.85994097144965,433.10344827586204,384.1090909090909C424.300402486144,394.3582408467322,415.8783086553431,386.5600279295616,406.0344827586207,383.3454545454546C396.1906568618983,380.13088116134753,384.925098899254,381.49994731030404,378.9655172413793,395.8181818181818C373.0059355835046,410.1364163260596,372.35233023039945,437.40381919285846,351.89655172413796,432.21818181818185C331.4407732178765,427.03254444350523,291.18282155845844,389.3938668273532,270.68965517241384,392C250.19648878636923,394.6061331726468,249.46810767369792,437.45707713409263,243.6206896551724,451.05454545454546C237.7732716366469,464.6520137749983,226.80681671226722,448.99600645445827,216.55172413793102,438.83636363636367C206.29663156359481,428.6767208182691,196.75290133930216,424.01344250261974,189.48275862068965,410.8363636363636C182.21261590207715,397.6592847701075,177.21606068914485,375.9684053532446,162.41379310344828,390.9818181818182C147.61152551775172,405.9952310103918,123.00354555929086,457.71293608440175,108.27586206896551,483.1272727272728C93.54817857864016,508.5416093701438,88.7007915564503,507.65257758187545,81.20689655172414,493.56363636363636C73.71300154699799,479.4746951453973,63.57259855973552,452.18584449718736,54.137931034482754,441.3818181818182C44.70326350922999,430.577791866449,35.97433144598689,436.2585898839205,27.068965517241377,455.1272727272727C18.163599588495863,473.995955570625,9.081799794247932,506.0525232398579,0,538.1090909090909Z"><title>Southern Europe</title></path><path fill="#7f7f7f" d="M0,521.5636363636364C9.081799794247932,478.81758147140886,18.163599588495863,436.07152657918135,27.068965517241377,429.6727272727273C35.97433144598689,423.2739279662732,44.70326350922998,453.2223842455926,54.137931034482754,440.3636363636364C63.57259855973553,427.50488848168015,73.71300154699799,371.8389364384486,81.20689655172414,355.3454545454545C88.7007915564503,338.8519726524604,93.54817857864016,361.5309609097037,108.27586206896551,334.7272727272727C123.00354555929086,307.9235845448417,147.6115255177517,231.63721992273645,162.41379310344828,229.60000000000002C177.21606068914488,227.5627800772636,182.21261590207715,299.77470485389597,189.48275862068965,334.98181818181814C196.75290133930216,370.1889315097403,206.29663156359481,368.39123338895206,216.55172413793102,379.5272727272727C226.80681671226722,390.66331206559335,237.77327163664694,414.7330888630227,243.6206896551724,404.2181818181818C249.4681076736979,393.70327477334087,250.19648878636923,348.60368388622953,270.68965517241384,337.52727272727276C291.18282155845844,326.450861568316,331.44077321787637,349.3976301375136,351.89655172413796,352.8C372.35233023039956,356.2023698624864,373.0059355835047,340.0603410182613,378.9655172413793,333.70909090909095C384.9250988992539,327.3578407999206,396.19065686189816,330.7973694258049,406.0344827586207,334.7272727272727C415.87830865534323,338.6571760287405,424.3004024861441,343.077454005792,433.10344827586204,335.74545454545455C441.90649406558,328.4134550851171,451.09049181421517,309.3291781873908,460.17241379310343,303.1636363636364C469.2543357719917,296.99809453988195,478.2341819811331,303.7512877900991,487.2413793103448,297.56363636363636C496.2485766395566,291.3759849371736,505.2831250888387,272.24748883403083,514.3103448275862,258.3636363636363C523.3375645663336,244.47978389324183,532.3574555945461,235.84057505559565,541.3793103448277,228.07272727272726C550.4011650951093,220.30487948985888,559.4249835674602,213.40839276176837,568.448275862069,206.94545454545454C577.4715681566777,200.4825163291407,586.494334273544,194.4531266246035,595.5172413793103,188.87272727272727C604.5401484850767,183.29232792085105,613.5631965797427,178.16091892163584,622.5862068965517,167.74545454545455C631.6092172133608,157.32999016927326,640.6321897523128,141.63047041612583,649.6551724137931,129.30909090909094C658.6781550752735,116.98771140205604,667.7011478592821,108.04447214113357,676.7241379310344,93.41818181818185C685.7471280027868,78.79189149523013,694.7701153622829,58.482550110249115,703.7931034482759,53.19999999999999C712.8160915342689,47.91744988975086,721.8390803467594,57.66169105423362,730.8620689655172,58.03636363636364C739.885057584275,58.411036218493656,748.9080460093002,49.41614021827094,757.9310344827586,50.14545454545457C766.954022956217,50.8747688726382,775.9770114781086,61.32829352722819,785,71.78181818181818L785,123.45454545454545C775.9770114781086,109.88193131175386,766.954022956217,96.30931716896228,757.9310344827586,90.1090909090909C748.9080460093002,83.90886464921951,739.8850575842749,85.08102627226837,730.8620689655172,87.81818181818184C721.8390803467595,90.55533736409531,712.8160915342693,94.85748683287335,703.7931034482759,100.54545454545456C694.7701153622826,106.23342225803577,685.7471280027868,113.30720821442011,676.7241379310344,125.74545454545452C667.7011478592821,138.18370087648893,658.6781550752734,155.9864075821735,649.6551724137931,167.49090909090907C640.6321897523129,178.99541059964463,631.6092172133608,184.20170691143124,622.5862068965517,193.96363636363634C613.5631965797427,203.72556581584143,604.5401484850764,218.043128408465,595.5172413793103,223.74545454545455C586.4943342735443,229.4477806824441,577.4715681566777,226.5348703637998,568.448275862069,228.07272727272726C559.4249835674602,229.61058418165473,550.4011650951094,235.59920831815376,541.3793103448277,243.85454545454544C532.357455594546,252.10988259093713,523.3375645663334,262.63193272722157,514.3103448275862,275.9272727272727C505.2831250888389,289.2226127273238,496.24857663955675,305.29124259114155,487.2413793103448,311.05454545454546C478.2341819811329,316.81784831794937,469.25433577199163,312.2758241809395,460.17241379310343,318.6909090909091C451.0904918142152,325.1059940008787,441.9064940655801,342.47818795782786,433.10344827586204,352.5454545454545C424.300402486144,362.61272113308115,415.8783086553431,365.37506035138523,406.0344827586207,365.5272727272727C396.1906568618983,365.6794851031602,384.925098899254,363.2215706366308,378.9655172413793,375.45454545454544C373.0059355835046,387.68752027246006,372.35233023039945,414.6113843748187,351.89655172413796,410.07272727272726C331.4407732178765,405.5340701706358,291.18282155845844,369.5328918640942,270.68965517241384,372.9090909090909C250.19648878636923,376.28528995408755,249.46810767369792,419.0388663506222,243.6206896551724,431.2C237.7732716366469,443.3611336493778,226.80681671226722,424.9298245515988,216.55172413793102,417.2C206.29663156359481,409.47017544840116,196.75290133930216,412.4418354429824,189.48275862068965,396.5818181818182C182.21261590207715,380.72180092065406,177.21606068914485,346.0301064037443,162.41379310344828,362.2181818181818C147.61152551775172,378.4062572326193,123.00354555929086,445.4741025784041,108.27586206896551,477.2727272727273C93.54817857864016,509.07135196705053,88.7007915564503,505.6007560099121,81.20689655172414,491.0181818181818C73.71300154699799,476.4356076264515,63.57259855973552,450.74105520012847,54.137931034482754,440.8727272727273C44.70326350922999,431.0043993453261,35.97433144598689,436.9622959168464,27.068965517241377,453.6C18.163599588495863,470.23770408315363,9.081799794247932,497.55521567794045,0,524.8727272727273Z"><title>Northern Europe</title></path><path fill="#cccccc" d="M0,521.5636363636364C9.081799794247932,478.8175679302137,18.163599588495863,436.0714994967911,27.068965517241377,429.6727272727273C35.97433144598689,423.2739550486635,44.70326350922998,453.22247903395856,54.137931034482754,440.3636363636364C63.57259855973553,427.5047936933142,73.71300154699799,371.83858436737484,81.20689655172414,355.3454545454545C88.7007915564503,338.8523247235342,93.54817857864016,361.5322744056328,108.27586206896551,334.7272727272727C123.00354555929086,307.9222710489126,147.6115255177517,231.63231801009402,162.41379310344828,229.60000000000002C177.21606068914488,227.56768198990602,182.21261590207715,299.7929990085366,189.48275862068965,334.98181818181814C196.75290133930216,370.1706373550997,206.29663156359481,368.32295868303265,216.55172413793102,379.27272727272725C226.80681671226722,390.22249586242185,237.77327163664694,413.96971171387816,243.6206896551724,403.45454545454544C249.4681076736979,392.9393791952127,250.19648878636923,348.16183082509065,270.68965517241384,337.2727272727273C291.18282155845844,326.38362372036397,331.44077321787637,349.3829649857591,351.89655172413796,352.8C372.35233023039956,356.21703501424093,373.0059355835047,340.0517637773276,378.9655172413793,333.70909090909095C384.9250988992539,327.3664180408543,396.19065686189816,330.8463435412942,406.0344827586207,334.7272727272727C415.87830865534323,338.6082019132512,424.3004024861441,342.89013478476824,433.10344827586204,335.4909090909091C441.90649406558,328.09168339704996,451.09049181421517,309.01129913781494,460.17241379310343,302.9090909090909C469.2543357719917,296.8068826803668,478.2341819811331,303.6828504821536,487.2413793103448,297.56363636363636C496.2485766395566,291.44442224511914,505.2831250888387,272.3300262062979,514.3103448275862,258.3636363636363C523.3375645663336,244.39724652097476,532.3574555945461,235.5788628744729,541.3793103448277,227.81818181818184C550.4011650951093,220.0575007618908,559.4249835674602,213.3545222958105,568.448275862069,206.94545454545454C577.4715681566777,200.53638679509857,586.494334273544,194.42122976046687,595.5172413793103,188.6181818181818C604.5401484850767,182.81513387589672,613.5631965797427,177.32419502595832,622.5862068965517,166.47272727272727C631.6092172133608,155.62125951949622,640.6321897523128,139.40926286297244,649.6551724137931,126.76363636363634C658.6781550752735,114.11800986430023,667.7011478592821,105.03875352215177,676.7241379310344,90.36363636363637C685.7471280027868,75.68851920512098,694.7701153622829,55.41754123023863,703.7931034482759,50.14545454545457C712.8160915342689,44.873367860670506,721.8390803467594,54.600172465984734,730.8620689655172,54.727272727272755C739.885057584275,54.854372988560776,748.9080460093002,45.38176890582256,757.9310344827586,46.07272727272728C766.954022956217,46.763685639631994,775.9770114781086,57.61820645617965,785,68.4727272727273L785,71.78181818181818C775.9770114781086,61.3282935272282,766.954022956217,50.87476887263821,757.9310344827586,50.14545454545457C748.9080460093002,49.41614021827093,739.8850575842749,58.411036218493656,730.8620689655172,58.03636363636364C721.8390803467595,57.66169105423362,712.8160915342693,47.91744988975087,703.7931034482759,53.19999999999999C694.7701153622826,58.48255011024911,685.7471280027868,78.79189149523012,676.7241379310344,93.41818181818185C667.7011478592821,108.04447214113358,658.6781550752734,116.987711402056,649.6551724137931,129.30909090909094C640.6321897523129,141.6304704161259,631.6092172133608,157.32999016927326,622.5862068965517,167.74545454545455C613.5631965797427,178.16091892163584,604.5401484850764,183.29232792085102,595.5172413793103,188.87272727272727C586.4943342735443,194.45312662460353,577.4715681566777,200.48251632914068,568.448275862069,206.94545454545454C559.4249835674602,213.4083927617684,550.4011650951094,220.30487948985893,541.3793103448277,228.07272727272726C532.357455594546,235.8405750555956,523.3375645663334,244.47978389324174,514.3103448275862,258.3636363636363C505.2831250888389,272.2474888340309,496.24857663955675,291.37598493717365,487.2413793103448,297.56363636363636C478.2341819811329,303.75128779009907,469.25433577199163,296.99809453988183,460.17241379310343,303.1636363636364C451.0904918142152,309.32917818739094,441.9064940655801,328.41345508511716,433.10344827586204,335.74545454545455C424.300402486144,343.07745400579194,415.8783086553431,338.6571760287405,406.0344827586207,334.7272727272727C396.1906568618983,330.7973694258049,384.925098899254,327.3578407999206,378.9655172413793,333.70909090909095C373.0059355835046,340.0603410182613,372.35233023039945,356.20236986248625,351.89655172413796,352.8C331.4407732178765,349.3976301375138,291.18282155845844,326.45086156831604,270.68965517241384,337.52727272727276C250.19648878636923,348.6036838862295,249.46810767369792,393.70327477334075,243.6206896551724,404.2181818181818C237.7732716366469,414.73308886302283,226.80681671226722,390.6633120655933,216.55172413793102,379.5272727272727C206.29663156359481,368.3912333889521,196.75290133930216,370.18893150974026,189.48275862068965,334.98181818181814C182.21261590207715,299.774704853896,177.21606068914485,227.56278007726354,162.41379310344828,229.60000000000002C147.61152551775172,231.6372199227365,123.00354555929086,307.9235845448417,108.27586206896551,334.7272727272727C93.54817857864016,361.5309609097037,88.7007915564503,338.85197265246035,81.20689655172414,355.3454545454545C73.71300154699799,371.8389364384487,63.57259855973552,427.5048884816802,54.137931034482754,440.3636363636364C44.70326350922999,453.22238424559254,35.97433144598689,423.2739279662732,27.068965517241377,429.6727272727273C18.163599588495863,436.07152657918135,9.081799794247932,478.81758147140886,0,521.5636363636364Z"><title>Southeast Asia</title></path><path fill="#ff7f0e" d="M0,521.5636363636364C9.081799794247932,478.8175679302151,18.163599588495863,436.0714994967938,27.068965517241377,429.6727272727273C35.97433144598689,423.27395504866075,44.70326350922998,453.22247903394896,54.137931034482754,440.3636363636364C63.57259855973553,427.5047936933238,73.71300154699799,371.8385843674107,81.20689655172414,355.3454545454545C88.7007915564503,338.8523247234983,93.54817857864016,361.53227440549927,108.27586206896551,334.7272727272727C123.00354555929086,307.9222710490461,147.6115255177517,231.63231801059223,162.41379310344828,229.60000000000002C177.21606068914488,227.56768198940782,182.21261590207715,299.7929990066773,189.48275862068965,334.98181818181814C196.75290133930216,370.170637356959,206.29663156359481,368.3229586899714,216.55172413793102,379.27272727272725C226.80681671226722,390.2224958554831,237.77327163664694,413.9697116879824,243.6206896551724,403.45454545454544C249.4681076736979,392.9393792211085,250.19648878636923,348.1618309217349,270.68965517241384,337.2727272727273C291.18282155845844,326.3836236237197,331.44077321787637,349.3829646250777,351.89655172413796,352.8C372.35233023039956,356.2170353749223,373.0059355835047,340.05176512340887,378.9655172413793,333.70909090909095C384.9250988992539,327.366416694773,396.19065686189816,330.8463385176506,406.0344827586207,334.7272727272727C415.87830865534323,338.60820693689476,424.3004024861441,342.89015353326135,433.10344827586204,335.4909090909091C441.90649406558,328.09166464855684,451.09049181421517,309.0112291674859,460.17241379310343,302.9090909090909C469.2543357719917,296.80695265069585,478.2341819811331,303.68311161497655,487.2413793103448,297.56363636363636C496.2485766395566,291.4441611122962,505.2831250888387,272.32905164533497,514.3103448275862,258.3636363636363C523.3375645663336,244.39822108193766,532.3574555945461,235.58249998550158,541.3793103448277,227.81818181818184C550.4011650951093,220.0538636508621,559.4249835674602,213.34094841265855,568.448275862069,206.94545454545454C577.4715681566777,200.54996067825053,586.494334273544,194.4718881820459,595.5172413793103,188.6181818181818C604.5401484850767,182.7644754543177,613.5631965797427,177.13513522279425,622.5862068965517,166.47272727272727C631.6092172133608,155.8103193226603,640.6321897523128,140.1148436540497,649.6551724137931,126.76363636363634C658.6781550752735,113.41242907322295,667.7011478592821,102.40549016100672,676.7241379310344,87.05454545454542C685.7471280027868,71.70360074808411,694.7701153622829,52.00865024737775,703.7931034482759,47.0909090909091C712.8160915342689,42.17316793444045,721.8390803467594,52.03263612220949,730.8620689655172,51.41818181818181C739.885057584275,50.803727514154126,748.9080460093002,39.715350718329724,757.9310344827586,40.2181818181818C766.954022956217,40.72101291803387,775.9770114781086,52.8150519135624,785,64.90909090909093L785,68.4727272727273C775.9770114781086,57.61820645617965,766.954022956217,46.763685639631994,757.9310344827586,46.07272727272728C748.9080460093002,45.38176890582256,739.8850575842749,54.85437298856076,730.8620689655172,54.727272727272755C721.8390803467595,54.60017246598475,712.8160915342693,44.87336786067051,703.7931034482759,50.14545454545457C694.7701153622826,55.417541230238626,685.7471280027868,75.68851920512097,676.7241379310344,90.36363636363637C667.7011478592821,105.03875352215178,658.6781550752734,114.11800986430023,649.6551724137931,126.76363636363634C640.6321897523129,139.40926286297244,631.6092172133608,155.62125951949622,622.5862068965517,166.47272727272727C613.5631965797427,177.32419502595832,604.5401484850764,182.81513387589675,595.5172413793103,188.6181818181818C586.4943342735443,194.42122976046684,577.4715681566777,200.53638679509857,568.448275862069,206.94545454545454C559.4249835674602,213.3545222958105,550.4011650951094,220.0575007618908,541.3793103448277,227.81818181818184C532.357455594546,235.5788628744729,523.3375645663334,244.3972465209747,514.3103448275862,258.3636363636363C505.2831250888389,272.33002620629793,496.24857663955675,291.44442224511914,487.2413793103448,297.56363636363636C478.2341819811329,303.6828504821536,469.25433577199163,296.80688268036675,460.17241379310343,302.9090909090909C451.0904918142152,309.011299137815,441.9064940655801,328.0916833970501,433.10344827586204,335.4909090909091C424.300402486144,342.8901347847681,415.8783086553431,338.6082019132511,406.0344827586207,334.7272727272727C396.1906568618983,330.8463435412943,384.925098899254,327.36641804085434,378.9655172413793,333.70909090909095C373.0059355835046,340.05176377732755,372.35233023039945,356.2170350142408,351.89655172413796,352.8C331.4407732178765,349.3829649857592,291.18282155845844,326.38362372036397,270.68965517241384,337.2727272727273C250.19648878636923,348.16183082509065,249.46810767369792,392.93937919521267,243.6206896551724,403.45454545454544C237.7732716366469,413.9697117138782,226.80681671226722,390.22249586242185,216.55172413793102,379.27272727272725C206.29663156359481,368.32295868303265,196.75290133930216,370.1706373550998,189.48275862068965,334.98181818181814C182.21261590207715,299.79299900853647,177.21606068914485,227.5676819899059,162.41379310344828,229.60000000000002C147.61152551775172,231.63231801009414,123.00354555929086,307.92227104891265,108.27586206896551,334.7272727272727C93.54817857864016,361.53227440563273,88.7007915564503,338.8523247235342,81.20689655172414,355.3454545454545C73.71300154699799,371.83858436737484,63.57259855973552,427.5047936933141,54.137931034482754,440.3636363636364C44.70326350922999,453.2224790339586,35.97433144598689,423.27395504866354,27.068965517241377,429.6727272727273C18.163599588495863,436.07149949679103,9.081799794247932,478.8175679302137,0,521.5636363636364Z"><title>Central Asia</title></path><path fill="#bcbd22" d="M0,521.5636363636364C9.081799794247932,478.81756793021526,18.163599588495863,436.0714994967941,27.068965517241377,429.6727272727273C35.97433144598689,423.27395504866047,44.70326350922998,453.222479033948,54.137931034482754,440.3636363636364C63.57259855973553,427.50479369332476,73.71300154699799,371.8385843674141,81.20689655172414,355.3454545454545C88.7007915564503,338.8523247234949,93.54817857864016,361.53227440548636,108.27586206896551,334.7272727272727C123.00354555929086,307.922271049059,147.6115255177517,231.6323180106404,162.41379310344828,229.60000000000002C177.21606068914488,227.56768198935964,182.21261590207715,299.79299900649755,189.48275862068965,334.98181818181814C196.75290133930216,370.17063735713873,206.29663156359481,368.32295869064217,216.55172413793102,379.27272727272725C226.80681671226722,390.22249585481234,237.77327163664694,413.96971168547924,243.6206896551724,403.45454545454544C249.4681076736979,392.93937922361164,250.19648878636923,348.16183093107685,270.68965517241384,337.2727272727273C291.18282155845844,326.38362361437777,331.44077321787637,349.38296459021325,351.89655172413796,352.8C372.35233023039956,356.2170354097868,373.0059355835047,340.0517652535249,378.9655172413793,333.70909090909095C384.9250988992539,327.366416564657,396.19065686189816,330.846338032051,406.0344827586207,334.7272727272727C415.87830865534323,338.6082074224944,424.3004024861441,342.8901553455438,433.10344827586204,335.4909090909091C441.90649406558,328.0916628362744,451.09049181421517,309.01122240395586,460.17241379310343,302.9090909090909C469.2543357719917,296.8069594142259,478.2341819811331,303.6831368568145,487.2413793103448,297.56363636363636C496.2485766395566,291.44413587045824,505.2831250888387,272.32895744151347,514.3103448275862,258.3636363636363C523.3375645663336,244.3983152857592,532.3574555945461,235.5828515589497,541.3793103448277,227.81818181818184C550.4011650951093,220.05351207741398,559.4249835674602,213.3396363226876,568.448275862069,206.94545454545454C577.4715681566777,200.55127276822148,586.494334273544,194.47678496848158,595.5172413793103,188.6181818181818C604.5401484850767,182.759578667882,613.5631965797427,177.11686016702237,622.5862068965517,166.47272727272727C631.6092172133608,155.82859437843217,640.6321897523128,140.18304709070162,649.6551724137931,126.76363636363634C658.6781550752735,113.34422563657105,667.7011478592821,102.15095147017111,676.7241379310344,86.80000000000001C685.7471280027868,71.44904852982891,694.7701153622829,51.94041975588666,703.7931034482759,47.0909090909091C712.8160915342689,42.24139842593154,721.8390803467594,52.051005869918626,730.8620689655172,51.41818181818181C739.885057584275,50.78535776644499,748.9080460093002,39.71010221898426,757.9310344827586,40.2181818181818C766.954022956217,40.726261417379334,775.9770114781086,52.817676163235134,785,64.90909090909093L785,64.90909090909093C775.9770114781086,52.815051913562385,766.954022956217,40.72101291803386,757.9310344827586,40.2181818181818C748.9080460093002,39.71535071832974,739.8850575842749,50.80372751415414,730.8620689655172,51.41818181818181C721.8390803467595,52.032636122209475,712.8160915342693,42.17316793444043,703.7931034482759,47.0909090909091C694.7701153622826,52.00865024737777,685.7471280027868,71.70360074808413,676.7241379310344,87.05454545454542C667.7011478592821,102.40549016100671,658.6781550752734,113.41242907322297,649.6551724137931,126.76363636363634C640.6321897523129,140.1148436540497,631.6092172133608,155.8103193226603,622.5862068965517,166.47272727272727C613.5631965797427,177.13513522279425,604.5401484850764,182.76447545431776,595.5172413793103,188.6181818181818C586.4943342735443,194.47188818204583,577.4715681566777,200.54996067825044,568.448275862069,206.94545454545454C559.4249835674602,213.34094841265863,550.4011650951094,220.05386365086216,541.3793103448277,227.81818181818184C532.357455594546,235.58249998550153,523.3375645663334,244.3982210819376,514.3103448275862,258.3636363636363C505.2831250888389,272.329051645335,496.24857663955675,291.4441611122962,487.2413793103448,297.56363636363636C478.2341819811329,303.68311161497655,469.25433577199163,296.8069526506958,460.17241379310343,302.9090909090909C451.0904918142152,309.01122916748596,441.9064940655801,328.0916646485569,433.10344827586204,335.4909090909091C424.300402486144,342.8901535332613,415.8783086553431,338.6082069368947,406.0344827586207,334.7272727272727C396.1906568618983,330.8463385176507,384.925098899254,327.3664166947731,378.9655172413793,333.70909090909095C373.0059355835046,340.0517651234088,372.35233023039945,356.2170353749222,351.89655172413796,352.8C331.4407732178765,349.3829646250778,291.18282155845844,326.38362362371964,270.68965517241384,337.2727272727273C250.19648878636923,348.161830921735,249.46810767369792,392.9393792211084,243.6206896551724,403.45454545454544C237.7732716366469,413.96971168798245,226.80681671226722,390.2224958554831,216.55172413793102,379.27272727272725C206.29663156359481,368.3229586899714,196.75290133930216,370.17063735695905,189.48275862068965,334.98181818181814C182.21261590207715,299.79299900667723,177.21606068914485,227.5676819894078,162.41379310344828,229.60000000000002C147.61152551775172,231.63231801059226,123.00354555929086,307.9222710490461,108.27586206896551,334.7272727272727C93.54817857864016,361.53227440549927,88.7007915564503,338.8523247234984,81.20689655172414,355.3454545454545C73.71300154699799,371.83858436741065,63.57259855973552,427.5047936933239,54.137931034482754,440.3636363636364C44.70326350922999,453.22247903394884,35.97433144598689,423.2739550486607,27.068965517241377,429.6727272727273C18.163599588495863,436.0714994967939,9.081799794247932,478.81756793021515,0,521.5636363636364Z"><title>Polynesia</title></path></g><g id="xAxis" transform="translate(0,560)" fill="none" font-size="10" font-family="sans-serif" text-anchor="middle"><path class="domain" stroke="currentColor" d="M0.5,0.5H785.5"/><g class="tick" opacity="1" transform="translate(27.568965517241377,0)"><line stroke="currentColor" y2="6"/><text fill="currentColor" y="9" dy="0.71em">1,900</text></g><g class="tick" opacity="1" transform="translate(95.24137931034483,0)"><line stroke="currentColor" y2="6"/><text fill="currentColor" y="9" dy="0.71em">1,910</text></g><g class="tick" opacity="1" transform="translate(162.91379310344828,0)"><line stroke="currentColor" y2="6"/><text fill="currentColor" y="9" dy="0.71em">1,920</text></g><g class="tick" opacity="1" transform="translate(230.58620689655172,0)"><line stroke="currentColor" y2="6"/><text fill="currentColor" y="9" dy="0.71em">1,930</text></g><g class="tick" opacity="1" transform="translate(298.2586206896552,0)"><line stroke="currentColor" y2="6"/><text fill="currentColor" y="9" dy="0.71em">1,940</text></g><g class="tick" opacity="1" transform="translate(365.9310344827586,0)"><line stroke="currentColor" y2="6"/><text fill="currentColor" y="9" dy="0.71em">1,950</text></g><g class="tick" opacity="1" transform="translate(433.60344827586204,0)"><line stroke="currentColor" y2="6"/><text fill="currentColor" y="9" dy="0.71em">1,960</text></g><g class="tick" opacity="1" transform="translate(501.2758620689656,0)"><line stroke="currentColor" y2="6"/><text fill="currentColor" y="9" dy="0.71em">1,970</text></g><g class="tick" opacity="1" transform="translate(568.948275862069,0)"><line stroke="currentColor" y2="6"/><text fill="currentColor" y="9" dy="0.71em">1,980</text></g><g class="tick" opacity="1" transform="translate(636.6206896551723,0)"><line stroke="currentColor" y2="6"/><text fill="currentColor" y="9" dy="0.71em">1,990</text></g><g class="tick" opacity="1" transform="translate(704.2931034482759,0)"><line stroke="currentColor" y2="6"/><text fill="currentColor" y="9" dy="0.71em">2,000</text></g><g class="tick" opacity="1" transform="translate(771.9655172413793,0)"><line stroke="currentColor" y2="6"/><text fill="currentColor" y="9" dy="0.71em">2,010</text></g></g><text y="556" x="785" text-anchor="end" style="font-family: Arial, sans-serif; font-size: 12px; fill: rgb(123, 123, 123); font-weight: bold;">Year</text><text x="4" text-anchor="start" dominant-baseline="hanging" style="font-family: Arial, sans-serif; font-size: 12px; fill: rgb(123, 123, 123); font-weight: bold;">Medals</text><g id="labels"><text x="406.0344827586207" y="556.0545454545454" text-anchor="middle" alignment-baseline="middle" style="font-family: Arial, sans-serif; font-size: 10px; fill: black; font-weight: bold;">South Asia</text><text x="703.7931034482759" y="558.2181818181818" text-anchor="middle" alignment-baseline="middle" style="font-family: Arial, sans-serif; font-size: 10px; fill: black; font-weight: bold;">North Africa</text><text x="757.9310344827586" y="530.4727272727273" text-anchor="middle" alignment-baseline="middle" style="font-family: Arial, sans-serif; font-size: 10px; fill: black; font-weight: bold;">Latin America and the Caribbean</text><text x="785" y="505.90909090909093" text-anchor="end" alignment-baseline="middle" style="font-family: Arial, sans-serif; font-size: 10px; fill: black; font-weight: bold;">Western Asia</text><text x="703.7931034482759" y="476.8909090909091" text-anchor="middle" alignment-baseline="middle" style="font-family: Arial, sans-serif; font-size: 10px; fill: black; font-weight: bold;">Australasia</text><text x="162.41379310344828" y="504.6363636363636" text-anchor="middle" alignment-baseline="middle" style="font-family: Arial, sans-serif; font-size: 10px; fill: black; font-weight: bold;">Western Europe</text><text x="568.448275862069" y="365.6545454545454" text-anchor="middle" alignment-baseline="middle" style="font-family: Arial, sans-serif; font-size: 10px; fill: black; font-weight: bold;">Eastern Europe</text><text x="54.137931034482754" y="495.9818181818182" text-anchor="middle" alignment-baseline="middle" style="font-family: Arial, sans-serif; font-size: 10px; fill: black; font-weight: bold;">Northern America</text><text x="757.9310344827586" y="217.63636363636365" text-anchor="middle" alignment-baseline="middle" style="font-family: Arial, sans-serif; font-size: 10px; fill: black; font-weight: bold;">Sub-Saharan Africa</text><text x="757.9310344827586" y="169.14545454545453" text-anchor="middle" alignment-baseline="middle" style="font-family: Arial, sans-serif; font-size: 10px; fill: black; font-weight: bold;">East Asia</text><text x="785" y="149.9272727272727" text-anchor="end" alignment-baseline="middle" style="font-family: Arial, sans-serif; font-size: 10px; fill: black; font-weight: bold;">Southern Europe</text><text x="108.27586206896551" y="406" text-anchor="middle" alignment-baseline="middle" style="font-family: Arial, sans-serif; font-size: 10px; fill: black; font-weight: bold;">Northern Europe</text><text x="757.9310344827586" y="48.109090909090924" text-anchor="middle" alignment-baseline="middle" style="font-family: Arial, sans-serif; font-size: 10px; fill: black; font-weight: bold;">Southeast Asia</text><text x="757.9310344827586" y="43.145454545454534" text-anchor="middle" alignment-baseline="middle" style="font-family: Arial, sans-serif; font-size: 10px; fill: black; font-weight: bold;">Central Asia</text><text x="676.7241379310344" y="86.92727272727275" text-anchor="middle" alignment-baseline="middle" style="font-family: Arial, sans-serif; font-size: 10px; fill: black; font-weight: bold;">Polynesia</text></g></g><text x="4" y="4" style="font-family: Arial, sans-serif; font-size: 12px; fill: black; font-weight: bold; dominant-baseline: hanging;"/></g></g></svg>